<svg xmlns="http://www.w3.org/2000/svg" viewBox="0 0 518.85 668.7"><defs><style>.cls-1{fill:#231f20;}</style></defs><g id="Layer_2" data-name="Layer 2"><g id="Layer_1-2" data-name="Layer 1"><path class="cls-1" d="M518.85,449v79.88h-10V519h-10V509h-10V499H479.1v10H469v19.6h-20.1V519h-10V499H429v-20H419V469h-9.92V449.09H409V449h-9.87V439.1H399V439h-9.87v.11h-.11V449h-9.87v.11h-.12l0,39.85h.07V489h9.91v79.82h.07v.06h9.65v59.85h-9.65v.07h-.07v9.92h-9.91v.06h-.07v9.92h-9.91v.07h-.07v9.77h-9.95V668.7H279.31q0-5,0-10h-.07v-.06h-9.65V638.78h9.65v-.07h.06v-9.92h9.92v-.06h.07v-9.92h9.91v-.07h.07V519h-.07v-.06h-9.89V459.07h-.11V459l-9.89,0v.07h-.07v39.69h-9.76v9.91H259.38V489h-.06v-.07h-9.77V429.07H219.44v19.8h-9.85v70H199.5V519h-.06v79.82h-9.92v.06h-.06v9.92h-9.92v.07h-.07v9.92H159.58v.06h-.07v9.92H129.64v.07h-.07v9.65H79.73V628.8h-.07v-.07H70V598.84h9.65v-.07h.07v-9.92H99.62v-.06h.07v-9.92h9.92v-.07h.06V538.93h9.92v-.07h.06l0-119.73h-.11V419h-9.72V389.44h-10v9.49h-30v10.23H59.8v9.62H49.69v-9.62H29.86v29.95h-10v9.63H0V429.08q0-20,0-40c0-6.45,0-12.91,0-20H9.77v-10h10v-10h10V329.2h10V309.3H49.7v-.12h.11v-9.87h9.87v-.11h.11v-9.94h9.92v-20h10V249.38h9.93v-.11h.12l0-19.89h-.07v-.06H79.73V199.44h-.07v-.07H70V119.56h9.65v-.07h.07V99.59h9.91v-.07h.07V89.6h9.91v-.07h.07V59.64h9.92v-.06h.06V39.67h9.92v-.06h.06V29.69h9.92v-.07h.06V19.7h19.9v-.06h.07V9.72h19.89V9.65h.07V0H219.4V9.65h.06v.07h19.9v9.92h.07v.06H269.3v9.92h.07v.07h29.87v-.07h.07V19.7h29.87v-.06h.07V10h49.84v9.66h.07v.06h19.89v9.92h.07v.07H409v9.92h.07v.06H419v9.92h.07v.07H429v19.9h.07v.07H439v9.92H439v.06H449V109.5H449v.07h9.65v99.79H449v.06H449v19.91H439v.06H439V249.3h-9.92v.06H429q0,14.94,0,29.87h.11v.11H439v29.84h.11v.12H449v19.9h9.92v29.91H459v.11h9.87v19.86H469a.41.41,0,0,1,0,.11h9.93v9.92h10V429h10v10h10v10Z"/></g></g></svg>