<svg xmlns="http://www.w3.org/2000/svg" viewBox="0 0 518.85 668.71"><defs><style>.cls-1{fill:#231f20;}</style></defs><g id="Layer_2" data-name="Layer 2"><g id="Layer_1-2" data-name="Layer 1"><path class="cls-1" d="M508.93,449V439H499V429H489V389.12h-10v-9.93H469v-.11h-.11V359.22H459v-.11h-.12v-29.9H449V309.3h-9.93v-.11h-.12V279.34h-9.86v-.11H429l-19.83.1h0l19.83-.1,0-29.86h.07v-.07H439V229.4H439v-.07H449v-19.9H449v-.07h9.65V109.57H449v-.07H449V79.62H439v-.07H439V69.63h-9.91v-.07H429V49.66h-9.91v-.07H419V39.68h-9.92v-.07H409V29.69h-9.92v-.07h-.06V19.7h-19.9v-.06h-.06V10H329.24v9.65h-.06v.06H299.3v9.92h-.06v.07H269.36v-.07h-.06V19.71H239.42v-.07h-.06V9.72h-19.9V9.65h-.07V0H169.55V9.65h-.06v.07h-19.9v9.92h-.07v.06H129.63v9.92h-.07v.07h-9.91v9.92h-.07v.07h-9.91v19.9h-.07v.07H99.69V89.53h-.07v.07H89.7v9.92h-.06v.07H79.72v19.9h-.06v.07H70v79.81h9.65v.07h.06v29.89h9.92q0-14.94,0-29.88h0q0,14.94,0,29.88h0v.07h.06l0,19.88h-.11v.11H79.69V269.3h-10v20H59.79v9.93h-.11v.12H49.81v9.87h-.12v.11H39.76v19.91h-10v19.91h-10v10h-10v10H0v79.65H19.87v-9.63h10V409.16H49.68v9.62H59.8v-9.62H69.89V398.93h30v-9.48h10V419h9.72v.11h.11l0,119.73h-.07v.07h-9.91V578.8h-.07v.07H99.69v9.92h-.07v.07H79.72v9.91h-.06v.07H70v29.89h9.65v.07h.06v9.65h49.85V628.8h.06v-.07h29.88v-9.92h.06v-.06h19.9v-9.92h.07v-.07h9.91v-9.92h.07v-.06h9.91V519h.07v-.06h10.09v-70h9.84v-19.8h30.11v59.87h9.77V489h.07v19.64h10.14v-9.91h9.76V459.05h.06V459l9.9,0v.11h.11V518.9h9.9V519h.06v99.78h-.06v.07h-9.92v9.92h-.07v.07h-9.91v9.92h-.07v.06h-9.64v19.91h9.64v.07h.07l0,10h79.85V658.54h9.94v-9.77h.07v-.07h9.92v-9.91h.06v-.07h9.92V628.8h.06v-.07h9.65V568.88h-9.65v-.06h-.06V489h-9.92v-.07h-.06l0-39.85h.11V449H389V439.1h.11V439H399v.11h.11V449H409v.11h.12V469H419v10H429v20h10v20h10v9.61H469V509H479.1V499h9.74v10h10v10h10v9.92h10.05V449ZM139.55,129.56h0v0Zm20-.08H139.63v0ZM379.07,179.4h0v0Zm-10-10h0Zm10.06,19.69v-9.62h0Zm30-9.62Zm-10-7.62V169.5h0Zm-.08-2.44h0v0Zm-10-10h0Zm-127.4,30h0Zm-62.21-140,10,.16h0l-10-.16c0-3.22,0-6.43,0-9.65C199.44,43,199.45,46.24,199.45,49.46ZM159.52,449.05v0Zm.09-.06Zm229.52-29.94h0l9.95.19h0Z"/></g></g></svg>