# Blender 3.5.1
# www.blender.org
mtllib base_tunnel_ascenceur.mtl
o base_wall.003
v -3.241313 15.301052 0.932301
v -5.408867 14.397133 1.830133
v -3.380158 15.301052 0.474590
v -5.681223 14.397133 0.932301
v -3.427037 15.301052 -0.001413
v -5.773190 14.397133 -0.001414
v -3.380158 15.301052 -0.477417
v -5.681223 14.397133 -0.935128
v -3.241313 15.301052 -0.935127
v -5.408867 14.397133 -1.832960
v -3.241313 26.187559 0.932301
v -4.514043 25.283640 1.830133
v -3.380158 26.187559 0.474590
v -3.427037 26.187559 -0.001413
v -3.380158 26.187559 -0.477417
v -3.241313 26.187559 -0.935127
v -4.514043 25.283640 -1.832960
v -5.773190 23.226017 -0.001414
v -3.380158 24.129936 -0.477417
v -3.427037 24.129936 -0.001413
v -5.681223 23.226017 0.932301
v -5.408867 23.226017 -1.832960
v -5.681223 23.226017 -0.935128
v -3.241313 24.129936 -0.935127
v -3.241313 24.129936 0.932301
v -3.380158 24.129936 0.474590
v -5.408867 23.226017 1.830133
v -2.787349 15.584938 1.279443
v -5.760770 14.578503 2.511076
v -2.977815 15.584938 0.651561
v -6.134384 14.578503 1.279443
v -3.042122 15.584938 -0.001413
v -6.260542 14.578503 -0.001414
v -2.977815 15.584938 -0.654388
v -6.134384 14.578503 -1.282270
v -2.787349 15.584938 -1.282269
v -5.760770 14.578503 -2.513903
vn 0.1296 0.0309 0.9911
vn -0.9214 0.0424 0.3863
vn -0.9686 0.0582 0.2418
vn -0.5046 0.1097 0.8563
vn -0.9808 -0.0000 -0.1951
vn -1.0000 -0.0000 -0.0000
vn -0.9808 -0.0000 0.1951
vn -0.9214 0.0424 -0.3863
vn -0.9686 0.0582 -0.2418
vn 0.1296 0.0309 -0.9911
vn -0.5046 0.1097 -0.8563
vn 0.6568 -0.7541 -0.0000
vn 0.6464 -0.7506 0.1369
vn 0.9808 -0.0000 0.1951
vn 1.0000 -0.0000 -0.0000
vn 0.3476 -0.9114 -0.2202
vn 0.6464 -0.7506 -0.1369
vn 0.9808 -0.0000 -0.1951
vn -0.0359 -0.9453 0.3242
vn -0.6056 -0.7834 -0.1397
vn -0.6292 -0.7773 -0.0000
vn -0.6056 -0.7834 0.1397
vn -0.0359 -0.9453 -0.3242
vn 0.3476 -0.9114 0.2202
vn 0.5402 -0.8334 0.1166
vn 0.0912 -0.9673 0.2367
vn 0.6122 -0.7773 0.1450
vn 0.5936 -0.8048 -0.0000
vn 0.6122 -0.7773 -0.1450
vn -0.3221 -0.9439 -0.0726
vn 0.0912 -0.9673 -0.2367
vn -0.3488 -0.9372 -0.0000
vn -0.3221 -0.9439 0.0726
vn 0.5402 -0.8334 -0.1166
vt 1.615351 -2.653433
vt 1.615351 -0.517776
vt -0.517776 -2.653433
vt -1.496441 -3.429204
vt -0.747349 -3.429204
vt -0.747349 -1.496441
vt -0.018858 -2.653433
vt -0.517776 -3.429204
vt -1.044225 -0.517776
vt 0.500000 -2.653433
vt 0.500000 -3.429204
vt -1.144471 0.500000
vt 1.018858 -2.653433
vt 1.517777 -3.429204
vt -1.044225 1.517777
vt 1.615351 -2.653433
vt 1.615351 1.517776
vt 1.517776 -2.653433
vt 2.496441 -3.429204
vt -0.747349 -3.429204
vt -0.747349 2.496441
vt -0.517776 6.689696
vt 1.615351 6.689696
vt 0.228037 5.913925
vt -0.018858 6.689696
vt 0.500000 6.689696
vt 1.018858 6.689696
vt 1.615351 6.689696
vt 1.517776 6.689696
vt 0.228037 5.913925
vt 0.500000 4.148011
vt 1.018858 4.923782
vt 0.500000 4.923782
vt -0.517776 4.148011
vt 2.496441 4.148011
vt -0.747349 4.148011
vt 1.517777 4.148011
vt 1.517776 4.923782
vt 1.615351 4.923782
vt 1.615351 4.923782
vt -0.517776 4.923782
vt -0.018858 4.923782
vt -1.496441 4.148011
vt -0.747349 4.148011
vt 2.110186 -0.896172
vt -0.896172 -2.134096
vt -1.130933 -2.238690
vt -0.211762 -2.134096
vt -1.538183 -0.896172
vt 0.500000 -2.134096
vt -1.675700 0.500000
vt 1.211762 -2.134096
vt -1.538183 1.896172
vt 2.110186 1.896171
vt 1.896171 -2.134096
vt -1.130933 3.238690
s 1
usemtl tunnel_ascenceur_baked
f 22/36/1 24/39/2 16/28/3 17/30/4
f 19/32/5 20/33/6 14/26/6 15/27/5
f 26/42/7 25/41/8 11/22/9 13/25/7
f 25/40/8 27/44/10 12/24/11 11/23/9
f 20/33/6 26/42/7 13/25/7 14/26/6
f 24/38/2 19/32/5 15/27/5 16/29/3
f 6/11/12 8/14/13 23/37/14 18/31/15
f 2/4/16 4/8/17 21/34/18 27/43/10
f 9/18/19 7/13/20 19/32/5 24/38/2
f 5/10/21 3/7/22 26/42/7 20/33/6
f 1/1/23 2/5/16 27/44/10 25/40/8
f 3/7/22 1/3/23 25/41/8 26/42/7
f 7/13/20 5/10/21 20/33/6 19/32/5
f 4/8/17 6/11/12 18/31/15 21/34/18
f 8/14/13 10/19/24 22/35/1 23/37/14
f 10/20/24 9/16/19 24/39/2 22/36/1
f 2/6/16 1/2/23 28/45/25 29/47/26
f 5/10/21 7/13/20 34/52/27 32/50/28
f 3/7/22 5/10/21 32/50/28 30/48/29
f 10/21/24 8/15/13 35/53/30 37/56/31
f 1/3/23 3/7/22 30/48/29 28/46/25
f 8/15/13 6/12/12 33/51/32 35/53/30
f 6/12/12 4/9/17 31/49/33 33/51/32
f 4/9/17 2/6/16 29/47/26 31/49/33
f 9/17/19 10/21/24 37/56/31 36/54/34
f 7/13/20 9/18/19 36/55/34 34/52/27
